<svg width="391" height="65" viewBox="0 0 391 65" fill="none" xmlns="http://www.w3.org/2000/svg">
<path d="M152.667 38.1729C152.275 37.4633 151.625 36.3782 150.716 34.9174L149.253 36.3698V38.1729H146.139C146.205 36.5535 146.239 35.0384 146.239 33.6277C146.239 32.217 146.205 30.7019 146.139 29.0826H149.253V32.7512C150.787 31.232 151.879 30.0091 152.529 29.0826H156.581L152.642 32.9891C153.226 33.8072 153.88 34.6962 154.605 35.6561C155.339 36.6161 156.002 37.455 156.594 38.1729H152.667Z" fill="white"/>
<path d="M141.211 38.1729C140.819 37.4633 140.169 36.3782 139.26 34.9174L137.797 36.3698V38.1729H134.683C134.75 36.5535 134.783 35.0384 134.783 33.6277C134.783 32.217 134.75 30.7019 134.683 29.0826H137.797V32.7512C139.331 31.232 140.423 30.0091 141.073 29.0826H145.125L141.186 32.9891C141.77 33.8072 142.424 34.6962 143.15 35.6561C143.883 36.6161 144.546 37.455 145.138 38.1729H141.211Z" fill="white"/>
<path d="M126.789 35.8815C129.957 35.8648 132.254 35.8189 133.68 35.7438C133.622 36.086 133.584 36.4408 133.567 36.8081C133.559 37.167 133.555 37.6219 133.555 38.1729H123.838C123.904 36.5535 123.938 35.0384 123.938 33.6277C123.938 32.217 123.904 30.7019 123.838 29.0826H133.555V31.3489H126.789V32.5509C127.189 32.5592 127.781 32.5634 128.565 32.5634C129.891 32.5634 131.262 32.5384 132.679 32.4883V34.6419C131.262 34.5918 129.891 34.5668 128.565 34.5668C127.781 34.5668 127.189 34.571 126.789 34.5793V35.8815Z" fill="white"/>
<path d="M122.831 31.712C121.522 31.6702 120.251 31.6452 119.017 31.6369V38.1729H115.89V31.6369C114.648 31.6452 113.381 31.6702 112.089 31.712V29.0826H122.831V31.712Z" fill="white"/>
<path d="M105.551 28.9448C107.118 28.9448 108.356 29.1368 109.265 29.5208C110.174 29.8964 110.807 30.4223 111.166 31.0984C111.533 31.7662 111.716 32.5885 111.716 33.5651C111.716 34.4917 111.508 35.3014 111.091 35.9942C110.674 36.687 110.049 37.2254 109.215 37.6094C108.381 37.985 107.356 38.1729 106.138 38.1729C105.396 38.1729 104.642 38.1729 103.875 38.1729C103.108 38.1729 102.332 38.1687 101.549 38.1603C101.615 36.5159 101.649 34.9842 101.649 33.5651C101.649 32.1294 101.615 30.631 101.549 29.07C102.541 28.9866 103.875 28.9448 105.551 28.9448ZM106.489 35.6812C107.264 35.6812 107.781 35.4933 108.039 35.1177C108.298 34.7421 108.427 34.2245 108.427 33.5651C108.427 32.9307 108.29 32.4173 108.014 32.025C107.748 31.6327 107.239 31.4365 106.489 31.4365C105.68 31.4365 105.075 31.4616 104.675 31.5116V35.6812H106.489Z" fill="white"/>
<path d="M100.551 32.1127C100.551 32.8389 100.371 33.4524 100.013 33.9533C99.6626 34.4541 99.0581 34.8172 98.1994 35.0426C98.2994 35.1761 98.3703 35.2805 98.412 35.3556L100.438 38.1729H97.0363C96.6694 37.4884 96.09 36.5201 95.2979 35.268H93.4595V38.1729H90.508C90.5747 36.5535 90.6081 35.0384 90.6081 33.6277C90.6081 32.217 90.5747 30.7019 90.508 29.0826H93.4595V29.0951H96.0233C97.7074 29.0951 98.883 29.3664 99.55 29.9089C100.217 30.4515 100.551 31.1861 100.551 32.1127ZM93.4595 31.4991V32.9265H95.1478C95.8565 32.9265 96.3901 32.9057 96.7486 32.8639C97.1155 32.8138 97.3698 32.7387 97.5115 32.6385C97.6533 32.5384 97.7241 32.3923 97.7241 32.2003C97.7241 32.0167 97.6574 31.8748 97.524 31.7746C97.3906 31.6744 97.1405 31.6035 96.7737 31.5617C96.4068 31.52 95.8649 31.4991 95.1478 31.4991H93.4595Z" fill="white"/>
<path d="M86.6016 38.1729C86.4432 37.6971 86.2306 37.1002 85.9638 36.3823H81.9743L81.349 38.1729H78.2099L81.7117 29.0826H86.314L89.8407 38.1729H86.6016ZM85.2509 34.4291C84.9341 33.5526 84.609 32.6761 84.2755 31.7996L83.9753 30.9858C83.6835 31.7454 83.2541 32.8931 82.6872 34.4291H85.2509Z" fill="white"/>
<path d="M77.7101 29.0826C77.6517 30.4933 77.6225 32.0083 77.6225 33.6277C77.6225 35.2471 77.6517 36.7622 77.7101 38.1729H74.7711V34.7671H70.1688V38.1729H67.2299C67.2966 36.5535 67.3299 35.0384 67.3299 33.6277C67.3299 32.217 67.2966 30.7019 67.2299 29.0826H70.1688V32.4883H74.7711V29.0826H77.7101Z" fill="white"/>
<path d="M66.2301 29.0951C66.1717 30.5058 66.1425 32.0167 66.1425 33.6277C66.1425 35.2471 66.1717 36.7622 66.2301 38.1729H61.7529L58.7264 31.3363L58.9515 38.1729H55.7374C55.8041 36.5535 55.8374 35.0384 55.8374 33.6277C55.8374 32.2253 55.8041 30.7145 55.7374 29.0951H60.3397L63.3787 36.1194L63.1661 29.0951H66.2301Z" fill="white"/>
<path d="M54.7375 29.0951C54.6792 30.5058 54.65 32.0167 54.65 33.6277C54.65 35.2471 54.6792 36.7622 54.7375 38.1729H50.2603L47.2338 31.3363L47.4589 38.1729H44.2448C44.3115 36.5535 44.3449 35.0384 44.3449 33.6277C44.3449 32.2253 44.3115 30.7145 44.2448 29.0951H48.8471L51.8861 36.1194L51.6735 29.0951H54.7375Z" fill="white"/>
<path d="M36.3511 35.8815C39.5193 35.8648 41.8163 35.8189 43.242 35.7438C43.1836 36.086 43.1461 36.4408 43.1294 36.8081C43.1211 37.167 43.1169 37.6219 43.1169 38.1729H33.3996C33.4663 36.5535 33.4997 35.0384 33.4997 33.6277C33.4997 32.217 33.4663 30.7019 33.3996 29.0826H43.1169V31.3489H36.3511V32.5509C36.7513 32.5592 37.3432 32.5634 38.127 32.5634C39.4526 32.5634 40.8241 32.5384 42.2415 32.4883V34.6419C40.8241 34.5918 39.4526 34.5668 38.127 34.5668C37.3432 34.5668 36.7513 34.571 36.3511 34.5793V35.8815Z" fill="white"/>
<path d="M28.701 34.7546L29.3513 29.0826H32.4028L30.727 38.1729H26.8876L26.0372 33.1018L25.0492 38.1729H21.3724L19.6965 29.0826H22.748L23.3859 34.6795L24.3863 29.0826H27.7255L28.701 34.7546Z" fill="white"/>
<path d="M18.8232 29.8589L18.1604 32.4006H17.2474L16.8097 34.1035H17.6977L17.0348 36.6453H16.1469L15.6842 38.4233H12.8578L13.3205 36.6453H11.9448L11.4821 38.4233H8.65568L9.11841 36.6453H8.01787L8.6807 34.1035H9.76874L10.2065 32.4006H9.14343L9.80626 29.8589H10.8693L11.2445 28.4064H14.0709L13.6957 29.8589H15.0839L15.4591 28.4064H18.2855L17.9103 29.8589H18.8232ZM12.5951 34.1035H13.9833L14.421 32.4006H13.0329L12.5951 34.1035Z" fill="white"/>
<path d="M375.734 35.8815C378.902 35.8648 381.199 35.8189 382.625 35.7438C382.566 36.086 382.529 36.4408 382.512 36.8081C382.504 37.167 382.5 37.6219 382.5 38.1729H372.782C372.849 36.5535 372.883 35.0384 372.883 33.6277C372.883 32.217 372.849 30.7019 372.782 29.0826H382.5V31.3489H375.734V32.5509C376.134 32.5592 376.726 32.5634 377.51 32.5634C378.835 32.5634 380.207 32.5384 381.624 32.4883V34.6419C380.207 34.5918 378.835 34.5668 377.51 34.5668C376.726 34.5668 376.134 34.571 375.734 34.5793V35.8815Z" fill="white"/>
<path d="M366.442 32.9891H371.783V38.1729H369.582L369.319 35.9566C369.069 36.7496 368.623 37.3381 367.981 37.7221C367.339 38.1061 366.555 38.2981 365.63 38.2981C364.788 38.2981 364.037 38.1103 363.378 37.7346C362.728 37.359 362.215 36.8206 361.84 36.1194C361.473 35.4182 361.29 34.6002 361.29 33.6653C361.29 32.1711 361.736 30.9899 362.628 30.1218C363.52 29.2537 364.908 28.8196 366.793 28.8196C367.868 28.8196 368.815 28.9949 369.632 29.3455C370.457 29.6961 371.157 30.2387 371.733 30.9732C371.357 31.1652 370.624 31.5492 369.532 32.1252L369.219 32.3005C368.894 31.9749 368.514 31.7329 368.081 31.5742C367.647 31.4073 367.189 31.3238 366.705 31.3238C365.905 31.3238 365.309 31.5367 364.917 31.9624C364.525 32.3798 364.329 32.8973 364.329 33.515C364.329 34.1828 364.537 34.7212 364.954 35.1302C365.379 35.5393 366.026 35.7438 366.893 35.7438C367.268 35.7438 367.631 35.6895 367.981 35.581C368.339 35.4725 368.639 35.2847 368.881 35.0175H366.442V32.9891Z" fill="white"/>
<path d="M360.29 29.0951C360.232 30.5058 360.203 32.0167 360.203 33.6277C360.203 35.2471 360.232 36.7622 360.29 38.1729H355.813L352.786 31.3363L353.012 38.1729H349.797C349.864 36.5535 349.897 35.0384 349.897 33.6277C349.897 32.2253 349.864 30.7145 349.797 29.0951H354.4L357.439 36.1194L357.226 29.0951H360.29Z" fill="white"/>
<path d="M345.696 29.07H348.798V34.0534C348.781 35.2805 348.36 36.2947 347.535 37.096C346.718 37.8974 345.338 38.2981 343.395 38.2981C341.428 38.2981 340.081 37.9183 339.356 37.1587C338.63 36.3907 338.276 35.3848 338.293 34.1411V29.07H341.394V33.9407C341.394 34.308 341.419 34.6085 341.469 34.8423C341.528 35.0676 341.703 35.2805 341.995 35.4808C342.295 35.6812 342.774 35.7813 343.433 35.7813C344.15 35.7813 344.675 35.6812 345.009 35.4808C345.342 35.2721 345.538 35.0426 345.596 34.7922C345.663 34.5417 345.696 34.2204 345.696 33.828V29.07Z" fill="white"/>
<path d="M337.295 29.07V33.49C337.295 35.0509 336.89 36.2446 336.082 37.071C335.281 37.889 334.01 38.2981 332.267 38.2981C331.267 38.2981 330.341 38.152 329.491 37.8598C328.649 37.5677 327.899 37.1879 327.24 36.7204C327.398 36.2029 327.528 35.7062 327.628 35.2304C327.728 34.7546 327.803 34.2329 327.853 33.6653C328.711 34.3581 329.503 34.8381 330.229 35.1052C330.954 35.3723 331.646 35.5059 332.305 35.5059C332.989 35.5059 333.476 35.3514 333.768 35.0426C334.06 34.7337 334.21 34.2037 334.218 33.4524V32.5008C334.218 31.1485 334.181 30.0049 334.106 29.07H337.295Z" fill="white"/>
<path d="M326.987 32.1127C326.987 32.8389 326.807 33.4524 326.449 33.9533C326.099 34.4541 325.494 34.8172 324.636 35.0426C324.736 35.1761 324.806 35.2805 324.848 35.3556L326.874 38.1729H323.472C323.106 37.4884 322.526 36.5201 321.734 35.268H319.896V38.1729H316.944C317.011 36.5535 317.044 35.0384 317.044 33.6277C317.044 32.217 317.011 30.7019 316.944 29.0826H319.896V29.0951H322.459C324.144 29.0951 325.319 29.3664 325.986 29.9089C326.653 30.4515 326.987 31.1861 326.987 32.1127ZM319.896 31.4991V32.9265H321.584C322.293 32.9265 322.826 32.9057 323.185 32.8639C323.552 32.8138 323.806 32.7387 323.948 32.6385C324.089 32.5384 324.16 32.3923 324.16 32.2003C324.16 32.0167 324.094 31.8748 323.96 31.7746C323.827 31.6744 323.577 31.6035 323.21 31.5617C322.843 31.52 322.301 31.4991 321.584 31.4991H319.896Z" fill="white"/>
<path d="M309.05 35.8815C312.219 35.8648 314.516 35.8189 315.941 35.7438C315.883 36.086 315.846 36.4408 315.829 36.8081C315.82 37.167 315.816 37.6219 315.816 38.1729H306.099C306.166 36.5535 306.199 35.0384 306.199 33.6277C306.199 32.217 306.166 30.7019 306.099 29.0826H315.816V31.3489H309.05V32.5509C309.451 32.5592 310.043 32.5634 310.826 32.5634C312.152 32.5634 313.524 32.5384 314.941 32.4883V34.6419C313.524 34.5918 312.152 34.5668 310.826 34.5668C310.043 34.5668 309.451 34.571 309.05 34.5793V35.8815Z" fill="white"/>
<path d="M305.093 31.712C303.784 31.6702 302.512 31.6452 301.278 31.6369V38.1729H298.152V31.6369C296.91 31.6452 295.642 31.6702 294.35 31.712V29.0826H305.093V31.712Z" fill="white"/>
<path d="M283.297 37.096C283.581 36.6703 283.814 36.2738 283.998 35.9065C284.189 35.5393 284.373 35.1135 284.548 34.6294C285.14 34.9716 285.828 35.2388 286.611 35.4307C287.395 35.6227 288.125 35.7187 288.8 35.7187C289.492 35.7187 289.98 35.6603 290.263 35.5434C290.547 35.4182 290.688 35.2847 290.688 35.1428C290.688 34.6336 289.913 34.379 288.362 34.379C286.661 34.379 285.427 34.2037 284.66 33.8531C283.893 33.4941 283.51 32.9182 283.51 32.1252C283.51 30.9983 283.977 30.1677 284.91 29.6335C285.844 29.0992 287.057 28.8321 288.55 28.8321C289.417 28.8321 290.305 28.9448 291.214 29.1702C292.131 29.3872 292.956 29.6877 293.69 30.0717C293.448 30.6226 293.194 31.2946 292.927 32.0876C292.877 32.2546 292.835 32.3798 292.802 32.4632C292.377 32.121 291.735 31.8372 290.876 31.6118C290.017 31.3781 289.258 31.2612 288.6 31.2612C287.808 31.2612 287.274 31.3155 286.999 31.424C286.724 31.5242 286.586 31.6744 286.586 31.8748C286.586 32.0751 286.774 32.2379 287.149 32.3631C287.533 32.4799 288.083 32.5384 288.8 32.5384C290.567 32.5384 291.851 32.7429 292.652 33.1519C293.452 33.5526 293.852 34.1703 293.852 35.005C293.852 36.1737 293.427 37.0167 292.577 37.5343C291.726 38.0435 290.438 38.2981 288.712 38.2981C287.787 38.2981 286.845 38.1979 285.886 37.9976C284.927 37.7889 284.064 37.4884 283.297 37.096Z" fill="white"/>
<path d="M279.196 29.07H282.298V34.0534C282.281 35.2805 281.86 36.2947 281.035 37.096C280.217 37.8974 278.838 38.2981 276.895 38.2981C274.927 38.2981 273.581 37.9183 272.855 37.1587C272.13 36.3907 271.776 35.3848 271.792 34.1411V29.07H274.894V33.9407C274.894 34.308 274.919 34.6085 274.969 34.8423C275.027 35.0676 275.202 35.2805 275.494 35.4808C275.794 35.6812 276.274 35.7813 276.932 35.7813C277.649 35.7813 278.175 35.6812 278.508 35.4808C278.842 35.2721 279.038 35.0426 279.096 34.7922C279.163 34.5417 279.196 34.2204 279.196 33.828V29.07Z" fill="white"/>
<path d="M270.792 29.0826C270.734 30.4933 270.705 32.0083 270.705 33.6277C270.705 35.2471 270.734 36.7622 270.792 38.1729H267.853V34.7671H263.251V38.1729H260.312C260.379 36.5535 260.412 35.0384 260.412 33.6277C260.412 32.217 260.379 30.7019 260.312 29.0826H263.251V32.4883H267.853V29.0826H270.792Z" fill="white"/>
<path d="M254.017 38.2981C252.133 38.2981 250.745 37.8974 249.852 37.096C248.96 36.2947 248.514 35.1511 248.514 33.6653C248.514 32.1711 248.96 30.9899 249.852 30.1218C250.745 29.2537 252.133 28.8196 254.017 28.8196C256.652 28.8196 258.415 29.7253 259.307 31.5367C258.557 31.7955 257.677 32.1836 256.668 32.7011C256.427 32.2337 256.043 31.8873 255.518 31.6619C255.001 31.4365 254.471 31.3238 253.929 31.3238C253.129 31.3238 252.533 31.5367 252.141 31.9624C251.749 32.3798 251.553 32.8973 251.553 33.515C251.553 34.1828 251.762 34.7296 252.179 35.1553C252.604 35.5727 253.25 35.7813 254.117 35.7813C254.809 35.7813 255.359 35.6686 255.768 35.4433C256.176 35.2095 256.477 34.8423 256.668 34.3414C257.352 34.7087 258.227 35.1219 259.295 35.581C258.878 36.591 258.182 37.2964 257.206 37.6971C256.231 38.0977 255.168 38.2981 254.017 38.2981Z" fill="white"/>
<path d="M236.961 37.096C237.244 36.6703 237.478 36.2738 237.661 35.9065C237.853 35.5393 238.036 35.1135 238.211 34.6294C238.803 34.9716 239.491 35.2388 240.275 35.4307C241.059 35.6227 241.788 35.7187 242.463 35.7187C243.155 35.7187 243.643 35.6603 243.927 35.5434C244.21 35.4182 244.352 35.2847 244.352 35.1428C244.352 34.6336 243.576 34.379 242.026 34.379C240.325 34.379 239.091 34.2037 238.324 33.8531C237.557 33.4941 237.173 32.9182 237.173 32.1252C237.173 30.9983 237.64 30.1677 238.574 29.6335C239.508 29.0992 240.721 28.8321 242.213 28.8321C243.08 28.8321 243.968 28.9448 244.877 29.1702C245.794 29.3872 246.62 29.6877 247.353 30.0717C247.112 30.6226 246.857 31.2946 246.59 32.0876C246.54 32.2546 246.499 32.3798 246.465 32.4632C246.04 32.121 245.398 31.8372 244.539 31.6118C243.681 31.3781 242.922 31.2612 242.263 31.2612C241.471 31.2612 240.938 31.3155 240.663 31.424C240.387 31.5242 240.25 31.6744 240.25 31.8748C240.25 32.0751 240.437 32.2379 240.813 32.3631C241.196 32.4799 241.746 32.5384 242.463 32.5384C244.231 32.5384 245.515 32.7429 246.315 33.1519C247.116 33.5526 247.516 34.1703 247.516 35.005C247.516 36.1737 247.091 37.0167 246.24 37.5343C245.39 38.0435 244.102 38.2981 242.376 38.2981C241.45 38.2981 240.508 38.1979 239.549 37.9976C238.591 37.7889 237.728 37.4884 236.961 37.096Z" fill="white"/>
<path d="M235.961 29.0951C235.903 30.5058 235.873 32.0167 235.873 33.6277C235.873 35.2471 235.903 36.7622 235.961 38.1729H231.484L228.457 31.3363L228.682 38.1729H225.468C225.535 36.5535 225.568 35.0384 225.568 33.6277C225.568 32.2253 225.535 30.7145 225.468 29.0951H230.07L233.109 36.1194L232.897 29.0951H235.961Z" fill="white"/>
<path d="M224.468 29.0951C224.41 30.5058 224.381 32.0167 224.381 33.6277C224.381 35.2471 224.41 36.7622 224.468 38.1729H219.991L216.965 31.3363L217.19 38.1729H213.976C214.042 36.5535 214.076 35.0384 214.076 33.6277C214.076 32.2253 214.042 30.7145 213.976 29.0951H218.578L221.617 36.1194L221.404 29.0951H224.468Z" fill="white"/>
<path d="M210.313 38.1729C210.155 37.6971 209.942 37.1002 209.676 36.3823H205.686L205.061 38.1729H201.922L205.424 29.0826H210.026L213.553 38.1729H210.313ZM208.963 34.4291C208.646 33.5526 208.321 32.6761 207.987 31.7996L207.687 30.9858C207.395 31.7454 206.966 32.8931 206.399 34.4291H208.963Z" fill="white"/>
<path d="M196.006 28.9448C197.574 28.9448 198.812 29.1368 199.721 29.5208C200.629 29.8964 201.263 30.4223 201.622 31.0984C201.988 31.7662 202.172 32.5885 202.172 33.5651C202.172 34.4917 201.963 35.3014 201.547 35.9942C201.13 36.687 200.504 37.2254 199.671 37.6094C198.837 37.985 197.811 38.1729 196.594 38.1729C195.852 38.1729 195.097 38.1729 194.33 38.1729C193.563 38.1729 192.788 38.1687 192.004 38.1603C192.071 36.5159 192.104 34.9842 192.104 33.5651C192.104 32.1294 192.071 30.631 192.004 29.07C192.996 28.9866 194.33 28.9448 196.006 28.9448ZM196.944 35.6812C197.72 35.6812 198.237 35.4933 198.495 35.1177C198.753 34.7421 198.883 34.2245 198.883 33.5651C198.883 32.9307 198.745 32.4173 198.47 32.025C198.203 31.6327 197.695 31.4365 196.944 31.4365C196.135 31.4365 195.531 31.4616 195.131 31.5116V35.6812H196.944Z" fill="white"/>
<path d="M191.131 29.8589L190.468 32.4006H189.555L189.118 34.1035H190.005L189.343 36.6453H188.455L187.992 38.4233H185.166L185.628 36.6453H184.253L183.79 38.4233H180.963L181.426 36.6453H180.326L180.988 34.1035H182.077L182.514 32.4006H181.451L182.114 29.8589H183.177L183.552 28.4064H186.379L186.003 29.8589H187.392L187.767 28.4064H190.593L190.218 29.8589H191.131ZM184.903 34.1035H186.291L186.729 32.4006H185.341L184.903 34.1035Z" fill="white"/>
<line y1="47" x2="153" y2="47" stroke="white" stroke-width="2"/>
<line y1="19" x2="165" y2="19" stroke="white" stroke-width="2"/>
<line x1="184" y1="19" x2="389" y2="19" stroke="white" stroke-width="2"/>
<line x1="173" y1="47" x2="389" y2="47" stroke="white" stroke-width="2"/>
<line x1="1" y1="48" x2="1" y2="18" stroke="white" stroke-width="2"/>
<line x1="390" y1="48" x2="390" y2="18" stroke="white" stroke-width="2"/>
<line y1="-1" x2="48" y2="-1" transform="matrix(0.422206 -0.9065 0.906115 0.423031 159.886 54)" stroke="white" stroke-width="2"/>
</svg>
